# xmcd
#
# Track frame offsets: 
#        150
#        13485
#        26919
#        40159
#        56259
#        67210
#        78752
#        93030
#        106239
#        121765
#        134477
#        149118
#        161765
#        174143
#        189449
#        200981
#        203652
#        206348
#        209001
#        211698
#        214357
#        217056
#        219719
#        222387
#        225081
#        227774
#        230466
#        233159
#        235855
#        238546
#
# Disc length: 3209 seconds
#
# Revision: 0
# Processed by: cddbd v1.5.2PL0 Copyright (c) Steve Scherf et al.
# Submitted via: ExactAudioCopyFreeDBPlugin 1.0
#
DISCID=c00c871e
DTITLE=Café Romantique - Slushy, Mushy Vignettes D'Amour Library Music
DTITLE=XEL 005
DYEAR=1900
DGENRE=Easy Listening
TTITLE0=Temptation Sensation (Long Version)
TTITLE1=Sweetheart Serenade (Long Version)
TTITLE2=Love Cruise (Long Version)
TTITLE3=Honeymoon Suite (Long Version)
TTITLE4=Moonbean Kiss (Long Version)
TTITLE5=Stepping Out (Long Version)
TTITLE6=Hug Of War (Long Version)
TTITLE7=Old Fame (Long Version)
TTITLE8=Secret Affair (Long Version)
TTITLE9=Honey Bunch (Long Version)
TTITLE10=Take The Plunge (Long Version)
TTITLE11=Bouquet Of Bliss (Long Version)
TTITLE12=Dreamin' Easy (Long Version)
TTITLE13=Seventh Heaven (Long Version)
TTITLE14=Final Fling (Long Version)
TTITLE15=Temptation Sensation (Short Version)
TTITLE16=Sweetheart Serenade (Short Version)
TTITLE17=Love Cruise (Short Version)
TTITLE18=Honeymoon Suite (Short Version)
TTITLE19=Moonbean Kiss (Short Version)
TTITLE20=Stepping Out (Short Version)
TTITLE21=Hug Of War (Short Version)
TTITLE22=Old Fame (Short Version)
TTITLE23=Secret Affair (Short Version)
TTITLE24=Honey Bunch (Short Version)
TTITLE25=Take The Plunge (Short Version)
TTITLE26=Bouquet Of Bliss (Short Version)
TTITLE27=Dreamin' Easy (Short Version)
TTITLE28=Seventh Heaven (Short Version)
TTITLE29=Final Fling (Short Version)
EXTD=
EXTT0=
EXTT1=
EXTT2=
EXTT3=
EXTT4=
EXTT5=
EXTT6=
EXTT7=
EXTT8=
EXTT9=
EXTT10=
EXTT11=
EXTT12=
EXTT13=
EXTT14=
EXTT15=
EXTT16=
EXTT17=
EXTT18=
EXTT19=
EXTT20=
EXTT21=
EXTT22=
EXTT23=
EXTT24=
EXTT25=
EXTT26=
EXTT27=
EXTT28=
EXTT29=
PLAYORDER=
